<svg width="12" height="15" viewBox="0 0 12 15" fill="none" xmlns="http://www.w3.org/2000/svg">
<path d="M0.902128 12.45C0.652482 12.45 0.43983 12.3638 0.26417 12.1913C0.0880567 12.0193 0 11.8111 0 11.5667C0 11.3222 0.0880567 11.1138 0.26417 10.9413C0.43983 10.7693 0.652482 10.6833 0.902128 10.6833H1.46383V6.36667C1.46383 5.35556 1.76454 4.45556 2.36596 3.66667C2.96738 2.87778 3.7617 2.36111 4.74894 2.11667V1.71667C4.74894 1.37222 4.87104 1.08333 5.11523 0.85C5.35898 0.616667 5.65106 0.5 5.99149 0.5C6.33191 0.5 6.62423 0.616667 6.86843 0.85C7.11217 1.08333 7.23404 1.37222 7.23404 1.71667V2.11667C8.22128 2.36111 9.0156 2.87778 9.61702 3.66667C10.2184 4.45556 10.5191 5.35556 10.5191 6.36667V10.6833H11.0979C11.3475 10.6833 11.5604 10.7693 11.7365 10.9413C11.9122 11.1138 12 11.3222 12 11.5667C12 11.8111 11.9122 12.0193 11.7365 12.1913C11.5604 12.3638 11.3475 12.45 11.0979 12.45H0.902128ZM6.00851 14.5C5.6 14.5 5.25118 14.3611 4.96204 14.0833C4.67245 13.8056 4.52766 13.4667 4.52766 13.0667H7.47234C7.47234 13.4667 7.32777 13.8056 7.03864 14.0833C6.74905 14.3611 6.40567 14.5 6.00851 14.5ZM3.26809 10.6833H8.71489V6.36667C8.71489 5.63333 8.44823 5.00556 7.91489 4.48333C7.38156 3.96111 6.74043 3.7 5.99149 3.7C5.24255 3.7 4.60142 3.96111 4.06809 4.48333C3.53475 5.00556 3.26809 5.63333 3.26809 6.36667V10.6833Z" fill="#D9D9D9"/>
</svg>
