<svg width="14" height="15" viewBox="0 0 14 15" fill="none" xmlns="http://www.w3.org/2000/svg">
<path d="M8.35693 14.5H5.63035C5.41449 14.5 5.2184 14.4249 5.04208 14.2748C4.86622 14.1242 4.76693 13.9431 4.7442 13.7315L4.53971 12.2613C4.44882 12.2279 4.35794 12.1834 4.26705 12.1277C4.17616 12.072 4.09096 12.0163 4.01143 11.9606L2.61406 12.5286C2.3982 12.6177 2.1853 12.6289 1.97535 12.5621C1.76495 12.4952 1.59727 12.3616 1.4723 12.1611L0.126044 9.85561C0.0124363 9.65513 -0.0243726 9.44352 0.0156174 9.22076C0.0551529 8.99801 0.165807 8.82538 0.34758 8.70286L1.5575 7.80072C1.54614 7.74503 1.54046 7.69491 1.54046 7.65036V7.34964C1.54046 7.30509 1.54614 7.25497 1.5575 7.19928L0.34758 6.29714C0.165807 6.16348 0.0551529 5.98528 0.0156174 5.76253C-0.0243726 5.53978 0.0124363 5.33373 0.126044 5.14439L1.4723 2.8389C1.58591 2.63842 1.75064 2.50745 1.96649 2.44597C2.18235 2.38493 2.3982 2.3934 2.61406 2.47136L4.02847 3.05609C4.108 2.98926 4.19048 2.93068 4.27591 2.88033C4.36089 2.83044 4.44882 2.78878 4.53971 2.75537L4.7442 1.2685C4.76693 1.04574 4.86349 0.861973 5.0339 0.717184C5.20432 0.572395 5.40313 0.5 5.63035 0.5H8.35693C8.58415 0.5 8.78296 0.572395 8.95338 0.717184C9.12379 0.861973 9.22036 1.04574 9.24308 1.2685L9.44757 2.75537C9.53846 2.78878 9.62934 2.83044 9.72023 2.88033C9.81112 2.93068 9.89632 2.98926 9.97585 3.05609L11.3732 2.47136C11.5891 2.3934 11.8022 2.38783 12.0126 2.45465C12.2226 2.52148 12.39 2.64956 12.515 2.8389L13.8783 5.14439C13.9919 5.34487 14.026 5.55648 13.9805 5.77924C13.9351 6.00199 13.8215 6.17462 13.6397 6.29714L12.4298 7.19928V7.65036C12.4298 7.69491 12.4241 7.74503 12.4127 7.80072L13.6227 8.70286C13.8044 8.82538 13.9151 8.99801 13.9546 9.22076C13.9946 9.44352 13.9578 9.65513 13.8442 9.85561L12.4809 12.1611C12.3673 12.3504 12.2026 12.4812 11.9867 12.5534C11.7709 12.626 11.555 12.6177 11.3391 12.5286L9.95881 11.9606C9.87928 12.0163 9.79703 12.072 9.71205 12.1277C9.62662 12.1834 9.53846 12.2279 9.44757 12.2613L9.24308 13.7315C9.22036 13.9431 9.12379 14.1242 8.95338 14.2748C8.78296 14.4249 8.58415 14.5 8.35693 14.5ZM6.99364 9.8389C7.65257 9.8389 8.21493 9.61058 8.68072 9.15394C9.14651 8.6973 9.37941 8.14598 9.37941 7.5C9.37941 6.85402 9.14651 6.3027 8.68072 5.84606C8.21493 5.38942 7.65257 5.1611 6.99364 5.1611C6.33471 5.1611 5.77236 5.38942 5.30656 5.84606C4.84077 6.3027 4.60787 6.85402 4.60787 7.5C4.60787 8.14598 4.84077 8.6973 5.30656 9.15394C5.77236 9.61058 6.33471 9.8389 6.99364 9.8389ZM6.99364 8.50239C6.70962 8.50239 6.46832 8.40482 6.26973 8.20969C6.07069 8.015 5.97117 7.77844 5.97117 7.5C5.97117 7.22156 6.07069 6.985 6.26973 6.79031C6.46832 6.59518 6.70962 6.49761 6.99364 6.49761C7.27766 6.49761 7.51896 6.59518 7.71755 6.79031C7.91659 6.985 8.01611 7.22156 8.01611 7.5C8.01611 7.77844 7.91659 8.015 7.71755 8.20969C7.51896 8.40482 7.27766 8.50239 6.99364 8.50239ZM6.41424 12.7291H7.53896L7.79458 10.9749C8.14676 10.8858 8.4819 10.7551 8.8 10.5827C9.11811 10.4098 9.40213 10.1897 9.65206 9.92243L11.3391 10.6074L11.8845 9.63842L10.453 8.56921C10.5098 8.40215 10.5523 8.22951 10.5805 8.05131C10.6091 7.87311 10.6234 7.68934 10.6234 7.5C10.6234 7.31066 10.6091 7.12689 10.5805 6.94869C10.5523 6.77049 10.5098 6.59785 10.453 6.43079L11.9015 5.36158L11.3391 4.3926L9.66911 5.09427C9.41917 4.82697 9.13515 4.60132 8.81705 4.41733C8.49895 4.23378 8.15812 4.10302 7.79458 4.02506L7.57304 2.27088H6.43128L6.20975 4.00835C5.83484 4.09745 5.48834 4.23111 5.17023 4.40931C4.85213 4.58751 4.56243 4.81026 4.30113 5.07757L2.64814 4.3926L2.08578 5.36158L3.51724 6.41408C3.46044 6.59228 3.41795 6.76759 3.38977 6.94C3.36114 7.11286 3.34683 7.29952 3.34683 7.5C3.34683 7.68934 3.36114 7.87311 3.38977 8.05131C3.41795 8.22951 3.46044 8.40772 3.51724 8.58592L2.08578 9.63842L2.64814 10.6074L4.30113 9.90573C4.56243 10.173 4.85509 10.3985 5.1791 10.582C5.50265 10.766 5.8462 10.9025 6.20975 10.9916L6.41424 12.7291Z" fill="#D9D9D9"/>
</svg>
